<svg width="10" height="20" viewBox="0 0 10 20" fill="none" xmlns="http://www.w3.org/2000/svg">
<path fill-rule="evenodd" clip-rule="evenodd" d="M0.209794 0.225964C0.276128 0.154337 0.35493 0.0975082 0.441687 0.0587336C0.528444 0.019959 0.62145 0 0.71538 0C0.809309 0 0.902316 0.019959 0.989072 0.0587336C1.07583 0.0975082 1.15463 0.154337 1.22097 0.225964L9.79021 9.45565C9.85671 9.5271 9.90947 9.61197 9.94547 9.70542C9.98147 9.79886 10 9.89903 10 10.0002C10 10.1014 9.98147 10.2015 9.94547 10.295C9.90947 10.3884 9.85671 10.4733 9.79021 10.5448L1.22097 19.7744C1.08688 19.9189 0.905011 20 0.71538 20C0.525748 20 0.343884 19.9189 0.209794 19.7744C0.0757048 19.63 0.000373881 19.4341 0.000373881 19.2299C0.000373881 19.0256 0.0757048 18.8298 0.209794 18.6853L8.27488 10.0002L0.209794 1.31507C0.143292 1.24362 0.0905301 1.15875 0.0545301 1.0653C0.0185301 0.971859 0 0.871684 0 0.770516C0 0.669347 0.0185301 0.569172 0.0545301 0.475729C0.0905301 0.382286 0.143292 0.297411 0.209794 0.225964Z" fill="#EDEDED"/>
</svg>
