<svg width="41" height="41" viewBox="0 0 41 41" fill="none" xmlns="http://www.w3.org/2000/svg">
<path d="M10.427 1.21094H1.12695V39.7419H10.427V1.21094Z" fill="#ED937E"/>
<path d="M19.729 39.7419V1.21094H10.429V39.7419H19.729Z" fill="#ED937E"/>
<path d="M20.88 3.06797L30.852 40.287L39.836 37.879L29.864 0.667969L20.88 3.06797ZM28.328 5.19897L24.475 6.23097L28.328 5.19897ZM25.166 8.79897L29.016 7.76697L25.166 8.79897ZM32.387 35.75L36.24 34.718L32.387 35.75ZM35.549 32.15L31.699 33.182L35.549 32.15Z" fill="#ED937E"/>
<path d="M40.473 37.7101L30.505 0.492066C30.4593 0.322294 30.3482 0.177539 30.196 0.0894609C30.0439 0.0013829 29.863 -0.0228486 29.693 0.0220664L20.708 2.43007C20.5847 2.46671 20.4751 2.5391 20.393 2.63807V1.21107C20.393 1.12387 20.3758 1.03752 20.3425 0.956965C20.3091 0.876404 20.2602 0.803206 20.1985 0.741547C20.1369 0.679889 20.0637 0.630979 19.9831 0.59761C19.9026 0.564241 19.8162 0.547066 19.729 0.547066H1.12701C0.950909 0.547066 0.782018 0.617023 0.657494 0.741547C0.53297 0.866072 0.463013 1.03496 0.463013 1.21107V39.7431C0.463013 39.8303 0.480188 39.9166 0.513557 39.9972C0.546926 40.0777 0.595836 40.1509 0.657494 40.2126C0.719152 40.2742 0.792351 40.3232 0.872911 40.3565C0.953471 40.3899 1.03982 40.4071 1.12701 40.4071H19.727C19.8142 40.4071 19.9006 40.3899 19.9811 40.3565C20.0617 40.3232 20.1349 40.2742 20.1965 40.2126C20.2582 40.1509 20.3071 40.0777 20.3405 39.9972C20.3738 39.9166 20.391 39.8303 20.391 39.7431V3.82107L30.208 40.4621C30.2459 40.6033 30.3294 40.7281 30.4455 40.8171C30.5615 40.9061 30.7038 40.9542 30.85 40.9541C30.9074 40.9536 30.9645 40.9459 31.02 40.9311L40.004 38.5231C40.0885 38.5008 40.1678 38.462 40.2374 38.409C40.3069 38.356 40.3652 38.2897 40.4091 38.2141C40.4529 38.1385 40.4814 38.0549 40.4929 37.9683C40.5044 37.8816 40.4987 37.7935 40.476 37.7091L40.473 37.7101ZM1.79201 1.87607H9.76301V39.0761H1.79201V1.87607ZM19.065 39.0761H11.092V1.87607H19.064L19.065 39.0761ZM31.323 39.4761L21.694 3.54107L29.394 1.47707L39.022 37.4131L31.323 39.4761Z" fill="#E94A26"/>
<path d="M7.77001 4.53296H3.78401C3.60777 4.53296 3.43875 4.60297 3.31413 4.72759C3.18951 4.85221 3.11951 5.02122 3.11951 5.19746C3.11951 5.3737 3.18951 5.54271 3.31413 5.66733C3.43875 5.79195 3.60777 5.86196 3.78401 5.86196H7.77001C7.94624 5.86196 8.11526 5.79195 8.23988 5.66733C8.3645 5.54271 8.43451 5.3737 8.43451 5.19746C8.43451 5.02122 8.3645 4.85221 8.23988 4.72759C8.11526 4.60297 7.94624 4.53296 7.77001 4.53296Z" fill="#E94A26"/>
<path d="M7.77001 7.19092H3.78401C3.60777 7.19092 3.43875 7.26093 3.31413 7.38554C3.18951 7.51016 3.11951 7.67919 3.11951 7.85542C3.11951 8.03166 3.18951 8.20068 3.31413 8.32529C3.43875 8.44991 3.60777 8.51992 3.78401 8.51992H7.77001C7.94624 8.51992 8.11526 8.44991 8.23988 8.32529C8.3645 8.20068 8.43451 8.03166 8.43451 7.85542C8.43451 7.67919 8.3645 7.51016 8.23988 7.38554C8.11526 7.26093 7.94624 7.19092 7.77001 7.19092Z" fill="#E94A26"/>
<path d="M13.085 5.86196H17.071C17.2473 5.86196 17.4163 5.79195 17.5409 5.66733C17.6655 5.54271 17.7355 5.3737 17.7355 5.19746C17.7355 5.02122 17.6655 4.85221 17.5409 4.72759C17.4163 4.60297 17.2473 4.53296 17.071 4.53296H13.085C12.9088 4.53296 12.7398 4.60297 12.6152 4.72759C12.4906 4.85221 12.4205 5.02122 12.4205 5.19746C12.4205 5.3737 12.4906 5.54271 12.6152 5.66733C12.7398 5.79195 12.9088 5.86196 13.085 5.86196Z" fill="#E94A26"/>
<path d="M13.085 8.51992H17.071C17.2473 8.51992 17.4163 8.44991 17.5409 8.32529C17.6655 8.20068 17.7355 8.03166 17.7355 7.85542C17.7355 7.67919 17.6655 7.51016 17.5409 7.38554C17.4163 7.26093 17.2473 7.19092 17.071 7.19092H13.085C12.9088 7.19092 12.7398 7.26093 12.6152 7.38554C12.4906 7.51016 12.4205 7.67919 12.4205 7.85542C12.4205 8.03166 12.4906 8.20068 12.6152 8.32529C12.7398 8.44991 12.9088 8.51992 13.085 8.51992Z" fill="#E94A26"/>
<path d="M28.498 5.84301C28.5822 5.82043 28.6612 5.78146 28.7304 5.72836C28.7996 5.67525 28.8576 5.60904 28.9012 5.5335C28.9448 5.45796 28.9731 5.37457 28.9845 5.2881C28.9958 5.20162 28.9901 5.11375 28.9675 5.02951C28.9449 4.94527 28.906 4.8663 28.8529 4.79711C28.7997 4.72793 28.7335 4.66988 28.658 4.62628C28.5825 4.58268 28.4991 4.55439 28.4126 4.54302C28.3261 4.53165 28.2382 4.53742 28.154 4.56001L24.301 5.59101C24.2167 5.6136 24.1376 5.65257 24.0684 5.7057C23.9992 5.75883 23.9411 5.82509 23.8974 5.90067C23.8538 5.97626 23.8254 6.0597 23.814 6.14624C23.8026 6.23277 23.8084 6.3207 23.831 6.40501C23.8536 6.48932 23.8926 6.56836 23.9457 6.6376C23.9988 6.70685 24.0651 6.76495 24.1407 6.8086C24.2163 6.85224 24.2997 6.88057 24.3862 6.89196C24.4728 6.90336 24.5607 6.8976 24.645 6.87501L28.498 5.84301Z" fill="#E94A26"/>
<path d="M28.845 7.1281L24.995 8.1601C24.8247 8.20572 24.6795 8.31711 24.5914 8.46976C24.5033 8.62242 24.4793 8.80383 24.525 8.9741C24.5706 9.14437 24.682 9.28954 24.8346 9.37768C24.9873 9.46583 25.1687 9.48972 25.339 9.4441L29.1919 8.4121C29.2762 8.38951 29.3552 8.35055 29.4244 8.29745C29.4936 8.24434 29.5516 8.17812 29.5952 8.10258C29.6388 8.02704 29.6671 7.94366 29.6785 7.85718C29.6898 7.77071 29.684 7.68284 29.6615 7.5986C29.6389 7.51436 29.5999 7.43539 29.5468 7.3662C29.4937 7.29702 29.4275 7.23897 29.352 7.19537C29.2764 7.15178 29.193 7.12348 29.1066 7.11211C29.0201 7.10074 28.9322 7.10652 28.848 7.1291L28.845 7.1281Z" fill="#E94A26"/>
<path d="M31.7 33.849C31.7581 33.8487 31.8159 33.841 31.872 33.8261L35.722 32.794C35.8922 32.7486 36.0373 32.6374 36.1254 32.4849C36.2135 32.3324 36.2375 32.1512 36.192 31.9811C36.1465 31.8109 36.0353 31.6658 35.8829 31.5777C35.7304 31.4895 35.5491 31.4656 35.379 31.5111L31.526 32.543C31.3698 32.5843 31.2341 32.681 31.1441 32.8152C31.0541 32.9493 31.0161 33.1116 31.0372 33.2718C31.0583 33.4319 31.137 33.5789 31.2586 33.6851C31.3803 33.7914 31.5365 33.8497 31.698 33.849H31.7Z" fill="#E94A26"/>
<path d="M32.218 35.111C32.0619 35.1523 31.9261 35.249 31.8361 35.3831C31.7461 35.5173 31.7081 35.6796 31.7292 35.8397C31.7503 35.9999 31.829 36.1468 31.9507 36.2531C32.0723 36.3594 32.2285 36.4177 32.39 36.417C32.4481 36.4172 32.506 36.4094 32.562 36.394L36.415 35.363C36.5853 35.3174 36.7305 35.206 36.8186 35.0534C36.9068 34.9007 36.9306 34.7193 36.885 34.549C36.8394 34.3788 36.728 34.2336 36.5754 34.1455C36.4227 34.0573 36.2413 34.0334 36.071 34.079L32.218 35.111Z" fill="#E94A26"/>
<path d="M13.085 33.7641H17.071C17.2473 33.7641 17.4163 33.694 17.5409 33.5694C17.6655 33.4448 17.7355 33.2758 17.7355 33.0995C17.7355 32.9233 17.6655 32.7543 17.5409 32.6297C17.4163 32.5051 17.2473 32.4351 17.071 32.4351H13.085C12.9088 32.4351 12.7398 32.5051 12.6152 32.6297C12.4906 32.7543 12.4205 32.9233 12.4205 33.0995C12.4205 33.2758 12.4906 33.4448 12.6152 33.5694C12.7398 33.694 12.9088 33.7641 13.085 33.7641Z" fill="#E94A26"/>
<path d="M13.085 36.422H17.071C17.2473 36.422 17.4163 36.352 17.5409 36.2274C17.6655 36.1028 17.7355 35.9337 17.7355 35.7575C17.7355 35.5813 17.6655 35.4123 17.5409 35.2877C17.4163 35.163 17.2473 35.093 17.071 35.093H13.085C12.9088 35.093 12.7398 35.163 12.6152 35.2877C12.4906 35.4123 12.4205 35.5813 12.4205 35.7575C12.4205 35.9337 12.4906 36.1028 12.6152 36.2274C12.7398 36.352 12.9088 36.422 13.085 36.422Z" fill="#E94A26"/>
<path d="M7.77001 32.4351H3.78401C3.60777 32.4351 3.43875 32.5051 3.31413 32.6297C3.18951 32.7543 3.11951 32.9233 3.11951 33.0995C3.11951 33.2758 3.18951 33.4448 3.31413 33.5694C3.43875 33.694 3.60777 33.7641 3.78401 33.7641H7.77001C7.94624 33.7641 8.11526 33.694 8.23988 33.5694C8.3645 33.4448 8.43451 33.2758 8.43451 33.0995C8.43451 32.9233 8.3645 32.7543 8.23988 32.6297C8.11526 32.5051 7.94624 32.4351 7.77001 32.4351Z" fill="#E94A26"/>
<path d="M7.77001 35.093H3.78401C3.60777 35.093 3.43875 35.163 3.31413 35.2877C3.18951 35.4123 3.11951 35.5813 3.11951 35.7575C3.11951 35.9337 3.18951 36.1028 3.31413 36.2274C3.43875 36.352 3.60777 36.422 3.78401 36.422H7.77001C7.94624 36.422 8.11526 36.352 8.23988 36.2274C8.3645 36.1028 8.43451 35.9337 8.43451 35.7575C8.43451 35.5813 8.3645 35.4123 8.23988 35.2877C8.11526 35.163 7.94624 35.093 7.77001 35.093Z" fill="#E94A26"/>
</svg>
