<svg width="41" height="41" viewBox="0 0 41 41" fill="none" xmlns="http://www.w3.org/2000/svg">
<path d="M39.865 5.45001C39.8478 4.75869 39.5567 4.10253 39.0559 3.62569C38.555 3.14885 37.8854 2.89036 37.194 2.90701H33.855V5.45001C33.9793 5.45627 34.099 5.49882 34.1992 5.5724C34.2995 5.64598 34.3761 5.74735 34.4193 5.86398C34.4626 5.9806 34.4707 6.10735 34.4427 6.22854C34.4146 6.34974 34.3517 6.46004 34.2616 6.54582C34.1715 6.63159 34.0582 6.68906 33.9358 6.71112C33.8134 6.73318 33.6872 6.71885 33.5728 6.66992C33.4585 6.62098 33.361 6.53958 33.2924 6.4358C33.2238 6.33201 33.1872 6.2104 33.187 6.08601C33.1891 6.00038 33.208 5.916 33.2427 5.83768C33.2774 5.75937 33.3272 5.68866 33.3893 5.6296C33.4513 5.57054 33.5244 5.52428 33.6043 5.49346C33.6842 5.46265 33.7694 5.44788 33.855 5.45001V2.90701H27.178V5.45001C27.3023 5.45627 27.422 5.49882 27.5223 5.5724C27.6225 5.64598 27.6991 5.74735 27.7423 5.86398C27.7856 5.9806 27.7937 6.10735 27.7657 6.22854C27.7376 6.34974 27.6747 6.46004 27.5846 6.54582C27.4945 6.63159 27.3812 6.68906 27.2588 6.71112C27.1364 6.73318 27.0102 6.71885 26.8958 6.66992C26.7815 6.62098 26.684 6.53958 26.6154 6.4358C26.5468 6.33201 26.5102 6.2104 26.51 6.08601C26.5121 6.00038 26.5311 5.916 26.5658 5.83768C26.6004 5.75937 26.6502 5.68866 26.7123 5.6296C26.7743 5.57054 26.8474 5.52428 26.9273 5.49346C27.0072 5.46265 27.0924 5.44788 27.178 5.45001V2.90701H20.5V5.45001C20.6243 5.45627 20.744 5.49882 20.8442 5.5724C20.9445 5.64598 21.0211 5.74735 21.0643 5.86398C21.1076 5.9806 21.1157 6.10735 21.0877 6.22854C21.0596 6.34974 20.9967 6.46004 20.9066 6.54582C20.8165 6.63159 20.7032 6.68906 20.5808 6.71112C20.4584 6.73318 20.3322 6.71885 20.2178 6.66992C20.1035 6.62098 20.006 6.53958 19.9374 6.4358C19.8688 6.33201 19.8322 6.2104 19.832 6.08601C19.8341 6.00038 19.8531 5.916 19.8877 5.83768C19.9224 5.75937 19.9722 5.68866 20.0343 5.6296C20.0963 5.57054 20.1694 5.52428 20.2493 5.49346C20.3292 5.46265 20.4144 5.44788 20.5 5.45001V2.90701H13.823V5.45001C13.9473 5.45627 14.067 5.49882 14.1672 5.5724C14.2675 5.64598 14.3441 5.74735 14.3873 5.86398C14.4306 5.9806 14.4387 6.10735 14.4107 6.22854C14.3826 6.34974 14.3197 6.46004 14.2296 6.54582C14.1395 6.63159 14.0262 6.68906 13.9038 6.71112C13.7814 6.73318 13.6552 6.71885 13.5408 6.66992C13.4265 6.62098 13.329 6.53958 13.2604 6.4358C13.1918 6.33201 13.1552 6.2104 13.155 6.08601C13.1571 6.00038 13.1761 5.916 13.2107 5.83768C13.2454 5.75937 13.2952 5.68866 13.3573 5.6296C13.4193 5.57054 13.4924 5.52428 13.5723 5.49346C13.6522 5.46265 13.7374 5.44788 13.823 5.45001V2.90701H7.14605V5.45001C7.27028 5.45627 7.38995 5.49882 7.49025 5.5724C7.59055 5.64598 7.66706 5.74735 7.71033 5.86398C7.7536 5.9806 7.76172 6.10735 7.73368 6.22854C7.70565 6.34974 7.64269 6.46004 7.5526 6.54582C7.46251 6.63159 7.34924 6.68906 7.22682 6.71112C7.1044 6.73318 6.9782 6.71885 6.86384 6.66992C6.74948 6.62098 6.65198 6.53958 6.58341 6.4358C6.51484 6.33201 6.4782 6.2104 6.47805 6.08601C6.48012 6.00038 6.49905 5.916 6.53375 5.83768C6.56845 5.75937 6.61824 5.68866 6.68027 5.6296C6.74231 5.57054 6.81537 5.52428 6.89529 5.49346C6.97521 5.46265 7.06042 5.44788 7.14605 5.45001V2.90701H3.80705C3.11572 2.89036 2.44606 3.14885 1.94522 3.62569C1.44438 4.10253 1.15334 4.75869 1.13605 5.45001V9.26401H39.865V5.45001Z" fill="#ED937E"/>
<path d="M21.136 6.08595C21.136 6.21174 21.0987 6.3347 21.0288 6.43929C20.959 6.54388 20.8596 6.6254 20.7434 6.67354C20.6272 6.72168 20.4993 6.73427 20.3759 6.70973C20.2526 6.68519 20.1393 6.62462 20.0503 6.53567C19.9614 6.44673 19.9008 6.3334 19.8762 6.21003C19.8517 6.08666 19.8643 5.95878 19.9124 5.84256C19.9606 5.72635 20.0421 5.62702 20.1467 5.55714C20.2513 5.48725 20.3742 5.44995 20.5 5.44995C20.6687 5.44995 20.8305 5.51696 20.9497 5.63623C21.069 5.7555 21.136 5.91728 21.136 6.08595Z" fill="#929288"/>
<path d="M27.824 6.08595C27.824 6.21174 27.7868 6.3347 27.7169 6.43929C27.647 6.54388 27.5477 6.6254 27.4314 6.67354C27.3152 6.72168 27.1874 6.73427 27.064 6.70973C26.9406 6.68519 26.8273 6.62462 26.7383 6.53567C26.6494 6.44673 26.5888 6.3334 26.5643 6.21003C26.5397 6.08666 26.5523 5.95878 26.6005 5.84256C26.6486 5.72635 26.7301 5.62702 26.8347 5.55714C26.9393 5.48725 27.0623 5.44995 27.1881 5.44995C27.3567 5.44995 27.5185 5.51696 27.6378 5.63623C27.757 5.7555 27.824 5.91728 27.824 6.08595Z" fill="#929288"/>
<path d="M34.7791 6.08595C34.7791 6.21174 34.7418 6.3347 34.6719 6.43929C34.602 6.54388 34.5027 6.6254 34.3865 6.67354C34.2702 6.72168 34.1424 6.73427 34.019 6.70973C33.8956 6.68519 33.7823 6.62462 33.6933 6.53567C33.6044 6.44673 33.5438 6.3334 33.5193 6.21003C33.4948 6.08666 33.5074 5.95878 33.5555 5.84256C33.6036 5.72635 33.6851 5.62702 33.7897 5.55714C33.8943 5.48725 34.0173 5.44995 34.1431 5.44995C34.3118 5.44995 34.4735 5.51696 34.5928 5.63623C34.7121 5.7555 34.7791 5.91728 34.7791 6.08595Z" fill="#929288"/>
<path d="M7.49203 6.08595C7.49203 6.21179 7.4547 6.33479 7.38477 6.4394C7.31484 6.54401 7.21546 6.62553 7.09919 6.67363C6.98292 6.72174 6.85498 6.73428 6.73158 6.70966C6.60818 6.68504 6.49487 6.62436 6.40596 6.53532C6.31705 6.44627 6.25656 6.33285 6.23213 6.20942C6.2077 6.08598 6.22044 5.95807 6.26873 5.84187C6.31702 5.72567 6.3987 5.62641 6.50342 5.55665C6.60814 5.48688 6.7312 5.44975 6.85703 5.44995C7.02554 5.45022 7.18705 5.51734 7.30611 5.63659C7.42516 5.75583 7.49203 5.91745 7.49203 6.08595Z" fill="#929288"/>
<path d="M14.4471 6.08595C14.4471 6.21174 14.4098 6.3347 14.3399 6.43929C14.27 6.54388 14.1707 6.6254 14.0544 6.67354C13.9382 6.72168 13.8104 6.73427 13.687 6.70973C13.5636 6.68519 13.4503 6.62462 13.3613 6.53567C13.2724 6.44673 13.2118 6.3334 13.1873 6.21003C13.1627 6.08666 13.1753 5.95878 13.2235 5.84256C13.2716 5.72635 13.3531 5.62702 13.4577 5.55714C13.5623 5.48725 13.6853 5.44995 13.811 5.44995C13.9797 5.44995 14.1415 5.51696 14.2608 5.63623C14.38 5.7555 14.4471 5.91728 14.4471 6.08595Z" fill="#929288"/>
<path d="M12.6301 26.6689H20.2581V31.7539H12.6301V26.6689Z" fill="#ED937E"/>
<path d="M29.058 32.1011H36.686V37.1861H29.058V32.1011Z" fill="#ED937E"/>
<path d="M4.31403 26.6689H11.942V31.7539H4.31403V26.6689Z" fill="#ED937E"/>
<path d="M20.743 22.238H28.371V27.323H20.743V22.238Z" fill="#ED937E"/>
<path d="M12.6301 22.238H20.2581V27.323H12.6301V22.238Z" fill="#ED937E"/>
<path d="M29.058 26.6689H36.686V31.7539H29.058V26.6689Z" fill="#ED937E"/>
<path d="M12.6301 16.8071H20.2581V21.8921H12.6301V16.8071Z" fill="#ED937E"/>
<path d="M4.31403 22.238H11.942V27.323H4.31403V22.238Z" fill="#ED937E"/>
<path d="M20.743 32.1011H28.371V37.1861H20.743V32.1011Z" fill="#ED937E"/>
<path d="M4.31403 32.1011H11.942V37.1861H4.31403V32.1011Z" fill="#ED937E"/>
<path d="M12.6301 32.1011H20.2581V37.1861H12.6301V32.1011Z" fill="#ED937E"/>
<path d="M4.31403 16.8071H11.942V21.8921H4.31403V16.8071Z" fill="#ED937E"/>
<path d="M20.743 16.8071H28.371V21.8921H20.743V16.8071Z" fill="#ED937E"/>
<path d="M20.743 26.6689H28.371V31.7539H20.743V26.6689Z" fill="#ED937E"/>
<path d="M29.058 16.8071H36.686V21.8921H29.058V16.8071Z" fill="#ED937E"/>
<path d="M29.058 22.238H36.686V27.323H29.058V22.238Z" fill="#ED937E"/>
<path d="M37.1671 2.33294H34.5001V1.66694C34.5035 1.57724 34.4889 1.48777 34.4569 1.40387C34.425 1.31998 34.3765 1.24339 34.3142 1.1787C34.252 1.11401 34.1774 1.06255 34.0948 1.02739C34.0122 0.99224 33.9233 0.974121 33.8336 0.974121C33.7438 0.974121 33.655 0.99224 33.5724 1.02739C33.4898 1.06255 33.4151 1.11401 33.3529 1.1787C33.2906 1.24339 33.2421 1.31998 33.2102 1.40387C33.1783 1.48777 33.1636 1.57724 33.1671 1.66694V2.33394H27.8331V1.66694C27.8365 1.57724 27.8219 1.48777 27.7899 1.40387C27.758 1.31998 27.7095 1.24339 27.6472 1.1787C27.585 1.11401 27.5104 1.06255 27.4278 1.02739C27.3452 0.99224 27.2563 0.974121 27.1666 0.974121C27.0768 0.974121 26.988 0.99224 26.9054 1.02739C26.8228 1.06255 26.7481 1.11401 26.6859 1.1787C26.6236 1.24339 26.5751 1.31998 26.5432 1.40387C26.5113 1.48777 26.4966 1.57724 26.5001 1.66694V2.33394H21.1671V1.66694C21.1705 1.57724 21.1559 1.48777 21.1239 1.40387C21.092 1.31998 21.0435 1.24339 20.9812 1.1787C20.919 1.11401 20.8444 1.06255 20.7618 1.02739C20.6792 0.99224 20.5903 0.974121 20.5006 0.974121C20.4108 0.974121 20.322 0.99224 20.2394 1.02739C20.1568 1.06255 20.0821 1.11401 20.0199 1.1787C19.9576 1.24339 19.9091 1.31998 19.8772 1.40387C19.8453 1.48777 19.8306 1.57724 19.8341 1.66694V2.33394H14.5001V1.66694C14.5035 1.57724 14.4889 1.48777 14.4569 1.40387C14.425 1.31998 14.3765 1.24339 14.3142 1.1787C14.252 1.11401 14.1774 1.06255 14.0948 1.02739C14.0122 0.99224 13.9233 0.974121 13.8336 0.974121C13.7438 0.974121 13.655 0.99224 13.5724 1.02739C13.4898 1.06255 13.4151 1.11401 13.3529 1.1787C13.2906 1.24339 13.2421 1.31998 13.2102 1.40387C13.1783 1.48777 13.1636 1.57724 13.1671 1.66694V2.33394H7.83306V1.66694C7.82639 1.49464 7.75325 1.33162 7.62898 1.21208C7.50472 1.09254 7.33899 1.02576 7.16656 1.02576C6.99413 1.02576 6.8284 1.09254 6.70414 1.21208C6.57988 1.33162 6.50674 1.49464 6.50006 1.66694V2.33394H3.83306C2.94942 2.335 2.10227 2.6865 1.47744 3.31132C0.852614 3.93615 0.50112 4.7833 0.500061 5.66694L0.500061 37.6669C0.50112 38.5506 0.852614 39.3977 1.47744 40.0226C2.10227 40.6474 2.94942 40.9989 3.83306 40.9999H37.1671C38.0507 40.9989 38.8979 40.6474 39.5227 40.0226C40.1475 39.3977 40.499 38.5506 40.5001 37.6669V5.66694C40.4993 4.78313 40.1479 3.93572 39.523 3.31068C38.8982 2.68563 38.0509 2.334 37.1671 2.33294ZM1.83306 5.66694C1.83306 5.13651 2.04377 4.6278 2.41885 4.25273C2.79392 3.87766 3.30263 3.66694 3.83306 3.66694H6.50006V5.18494C6.24594 5.33166 6.04732 5.55814 5.93503 5.82924C5.82274 6.10034 5.80303 6.40092 5.87898 6.68436C5.95493 6.9678 6.12228 7.21826 6.35508 7.39689C6.58788 7.57553 6.87312 7.67235 7.16656 7.67235C7.46 7.67235 7.74524 7.57553 7.97804 7.39689C8.21084 7.21826 8.37819 6.9678 8.45414 6.68436C8.53009 6.40092 8.51039 6.10034 8.39809 5.82924C8.2858 5.55814 8.08719 5.33166 7.83306 5.18494V3.66694H13.1661V5.18494C12.9119 5.33166 12.7133 5.55814 12.601 5.82924C12.4887 6.10034 12.469 6.40092 12.545 6.68436C12.6209 6.9678 12.7883 7.21826 13.0211 7.39689C13.2539 7.57553 13.5391 7.67235 13.8326 7.67235C14.126 7.67235 14.4112 7.57553 14.644 7.39689C14.8768 7.21826 15.0442 6.9678 15.1201 6.68436C15.1961 6.40092 15.1764 6.10034 15.0641 5.82924C14.9518 5.55814 14.7532 5.33166 14.4991 5.18494V3.66694H19.8321V5.18494C19.5779 5.33166 19.3793 5.55814 19.267 5.82924C19.1547 6.10034 19.135 6.40092 19.211 6.68436C19.2869 6.9678 19.4543 7.21826 19.6871 7.39689C19.9199 7.57553 20.2051 7.67235 20.4986 7.67235C20.792 7.67235 21.0772 7.57553 21.31 7.39689C21.5428 7.21826 21.7102 6.9678 21.7861 6.68436C21.8621 6.40092 21.8424 6.10034 21.7301 5.82924C21.6178 5.55814 21.4192 5.33166 21.1651 5.18494V3.66694H26.5001V5.18494C26.2459 5.33166 26.0473 5.55814 25.935 5.82924C25.8227 6.10034 25.803 6.40092 25.879 6.68436C25.9549 6.9678 26.1223 7.21826 26.3551 7.39689C26.5879 7.57553 26.8731 7.67235 27.1666 7.67235C27.46 7.67235 27.7452 7.57553 27.978 7.39689C28.2108 7.21826 28.3782 6.9678 28.4541 6.68436C28.5301 6.40092 28.5104 6.10034 28.3981 5.82924C28.2858 5.55814 28.0872 5.33166 27.8331 5.18494V3.66694H33.1661V5.18494C32.9119 5.33166 32.7133 5.55814 32.601 5.82924C32.4887 6.10034 32.469 6.40092 32.545 6.68436C32.6209 6.9678 32.7883 7.21826 33.0211 7.39689C33.2539 7.57553 33.5391 7.67235 33.8326 7.67235C34.126 7.67235 34.4112 7.57553 34.644 7.39689C34.8768 7.21826 35.0442 6.9678 35.1201 6.68436C35.1961 6.40092 35.1764 6.10034 35.0641 5.82924C34.9518 5.55814 34.7532 5.33166 34.4991 5.18494V3.66694H37.1661C37.6965 3.66694 38.2052 3.87766 38.5803 4.25273C38.9553 4.6278 39.1661 5.13651 39.1661 5.66694V8.99994H1.83306V5.66694ZM39.1661 37.6669C39.1661 38.1974 38.9553 38.7061 38.5803 39.0812C38.2052 39.4562 37.6965 39.6669 37.1661 39.6669H3.83306C3.30263 39.6669 2.79392 39.4562 2.41885 39.0812C2.04377 38.7061 1.83306 38.1974 1.83306 37.6669V10.3329H39.1671L39.1661 37.6669Z" fill="#E94A26"/>
<path d="M4.35104 37.821H36.651C36.8246 37.8258 36.993 37.7616 37.1192 37.6423C37.2454 37.523 37.3191 37.3586 37.324 37.185V16.845C37.3191 16.6714 37.2454 16.507 37.1192 16.3877C36.993 16.2684 36.8246 16.2042 36.651 16.209H4.35104C4.17747 16.2042 4.00909 16.2684 3.88289 16.3877C3.75669 16.507 3.68301 16.6714 3.67804 16.845V37.186C3.68327 37.3594 3.75706 37.5236 3.88323 37.6427C4.0094 37.7617 4.17764 37.8258 4.35104 37.821ZM13.098 27.65H19.827V31.464H13.098V27.65ZM11.752 31.464H5.02404V27.65H11.753L11.752 31.464ZM19.826 32.735V36.549H13.098V32.735H19.826ZM21.172 32.735H27.901V36.549H21.173L21.172 32.735ZM21.172 31.464V27.65H27.901V31.464H21.172ZM29.246 27.65H35.978V31.464H29.247L29.246 27.65ZM35.975 26.379H29.247V22.565H35.978L35.975 26.379ZM27.901 26.379H21.173V22.565H27.902L27.901 26.379ZM21.172 21.294V17.48H27.901V21.294H21.172ZM19.826 21.294H13.098V17.48H19.827L19.826 21.294ZM19.826 22.565V26.379H13.098V22.565H19.826ZM11.752 26.379H5.02404V22.565H11.753L11.752 26.379ZM5.02304 32.736H11.752V36.55H5.02404L5.02304 32.736ZM29.246 36.55V32.736H35.978V36.55H29.246ZM35.978 21.294H29.247V17.48H35.978V21.294ZM11.755 17.48V21.294H5.02404V17.48H11.755Z" fill="#E94A26"/>
</svg>
