<svg width="34" height="41" viewBox="0 0 34 41" fill="none" xmlns="http://www.w3.org/2000/svg">
<path d="M8.01013 37.5781H24.4101V40.3111H8.01013V37.5781Z" fill="#ED937E"/>
<path d="M18.2582 21.1802H6.64319L8.00919 37.5802H24.4092L25.7732 21.1802H18.2582Z" fill="#ED937E"/>
<path d="M19.1742 21.181H23.9092L29.6892 11.165L28.2522 10.334L26.1422 9.11597L19.1742 21.181Z" fill="#ED937E"/>
<path d="M3.51313 9.34497L2.13513 10.145L3.51313 9.34497Z" fill="#9BC9FF"/>
<path d="M28.2811 4.03906L25.5481 8.77306L26.1421 9.11606L28.2511 10.3351L30.2811 11.5071L33.0141 6.77306L28.2811 4.03906Z" fill="#ED937E"/>
<path d="M26.1411 9.11599L28.2511 10.334L26.1421 9.11499L26.1411 9.11599Z" fill="#9BC9FF"/>
<path d="M33.3571 6.18L28.6241 3.447C28.467 3.35678 28.2806 3.33254 28.1057 3.37959C27.9308 3.42665 27.7817 3.54116 27.6911 3.698L24.9581 8.431C24.9132 8.50868 24.8841 8.59443 24.8724 8.68335C24.8607 8.77228 24.8666 8.86264 24.8898 8.94928C24.9131 9.03591 24.9531 9.11713 25.0077 9.18829C25.0623 9.25945 25.1304 9.31915 25.2081 9.364L18.9411 20.217V7.516C18.9411 7.508 18.9361 7.5 18.9361 7.492C18.935 7.41843 18.9222 7.34551 18.8981 7.276L16.8911 1.926V0.683C16.8911 0.501857 16.8191 0.328133 16.691 0.200046C16.5629 0.0719587 16.3892 0 16.2081 0C16.0269 0 15.8532 0.0719587 15.7251 0.200046C15.597 0.328133 15.5251 0.501857 15.5251 0.683V1.925L13.5181 7.275C13.494 7.34451 13.4811 7.41743 13.4801 7.491C13.4801 7.499 13.4801 7.507 13.4801 7.515V20.215L6.27808 7.748C6.27808 7.739 6.26408 7.734 6.25808 7.726C6.22142 7.6644 6.17517 7.60903 6.12108 7.562L6.10008 7.546L1.61708 3.857C1.50947 3.76851 1.37738 3.71504 1.23852 3.70376C1.09966 3.69249 0.960667 3.72395 0.840196 3.79392C0.719725 3.8639 0.623535 3.96904 0.564528 4.09525C0.505522 4.22145 0.486522 4.36269 0.510078 4.5L1.46608 10.231V10.241V10.258C1.47833 10.3278 1.50127 10.3952 1.53408 10.458C1.53692 10.4678 1.54026 10.4775 1.54408 10.487L7.32608 20.5H6.64308C6.54838 20.4997 6.45465 20.519 6.36784 20.5569C6.28102 20.5947 6.20303 20.6502 6.1388 20.7198C6.07457 20.7893 6.02551 20.8715 5.99475 20.9611C5.96398 21.0507 5.95217 21.1456 5.96008 21.24L7.32608 37.606V40.306C7.32608 40.3957 7.34374 40.4845 7.37807 40.5674C7.41239 40.6502 7.4627 40.7255 7.52612 40.789C7.58955 40.8524 7.66484 40.9027 7.7477 40.937C7.83057 40.9713 7.91938 40.989 8.00908 40.989H24.4091C24.5902 40.989 24.7639 40.917 24.892 40.789C25.0201 40.6609 25.0921 40.4871 25.0921 40.306V37.606L26.4581 21.237C26.4658 21.1427 26.4539 21.0477 26.4231 20.9583C26.3923 20.8688 26.3432 20.7866 26.279 20.7171C26.2148 20.6475 26.1369 20.5921 26.0501 20.5542C25.9634 20.5163 25.8697 20.4968 25.7751 20.497H25.0901L29.9411 12.097L30.5331 12.439L28.1421 16.581C28.0972 16.6587 28.0681 16.7444 28.0564 16.8334C28.0447 16.9223 28.0506 17.0126 28.0738 17.0993C28.0971 17.1859 28.1371 17.2671 28.1917 17.3383C28.2463 17.4094 28.3144 17.4692 28.3921 17.514C28.4698 17.5588 28.5555 17.588 28.6444 17.5997C28.7334 17.6114 28.8237 17.6054 28.9104 17.5822C29.0853 17.5353 29.2345 17.4209 29.3251 17.264L32.0581 12.53C32.1029 12.4523 32.132 12.3666 32.1437 12.2776C32.1554 12.1887 32.1495 12.0984 32.1263 12.0117C32.1031 11.9251 32.063 11.8439 32.0084 11.7727C31.9538 11.7016 31.8858 11.6418 31.8081 11.597L31.2161 11.255L33.6071 7.11C33.6967 6.9534 33.7207 6.76769 33.6739 6.59344C33.627 6.41919 33.5131 6.27056 33.3571 6.18ZM25.0311 21.863L23.7791 36.894H8.63808L7.38608 21.863H25.0311ZM14.8421 8.2H17.5751V20.5H14.8421V8.2ZM16.2081 4L17.2721 6.837H15.1441L16.2081 4ZM4.49008 8L2.64608 9.057L2.14608 6.069L4.49008 8ZM3.06708 10.4L4.61708 9.5L5.43708 9.029L12.0601 20.5H8.90008L3.06708 10.4ZM23.7241 39.627H8.69308V38.261H23.7241V39.627ZM28.7551 11.414L23.5131 20.5H20.3571L26.3921 10.052L28.7551 11.414ZM30.0311 10.572L26.4841 8.522L28.5341 4.972L32.0871 7.022L30.0311 10.572Z" fill="#E94A26"/>
</svg>
