<svg width="41" height="43" viewBox="0 0 41 43" fill="none" xmlns="http://www.w3.org/2000/svg">
<path d="M33.454 7.0459H37.682V35.0579H33.454V7.0459Z" fill="#ED937E"/>
<path d="M35.568 41.4011L37.681 35.0591H33.453L35.568 41.4011Z" fill="#ED937E"/>
<path d="M33.454 0.705078H37.682V7.04708H33.454V0.705078Z" fill="#ED937E"/>
<path d="M29.284 9.16108L20.829 0.705078V9.16108H29.284Z" fill="#ED937E"/>
<path d="M39.795 6.316H38.386V0.7C38.386 0.514348 38.3122 0.336301 38.1809 0.205025C38.0496 0.0737498 37.8716 0 37.6859 0H33.4529C33.2673 0 33.0893 0.0737498 32.958 0.205025C32.8267 0.336301 32.7529 0.514348 32.7529 0.7V35.088C32.7584 35.1629 32.7704 35.2372 32.7889 35.31L34.903 41.626C34.9499 41.7664 35.0398 41.8884 35.16 41.9749C35.2801 42.0614 35.4244 42.1079 35.5724 42.1079C35.7205 42.1079 35.8648 42.0614 35.9849 41.9749C36.105 41.8884 36.195 41.7664 36.2419 41.626L38.3559 35.31C38.3736 35.2371 38.385 35.1628 38.39 35.088V7.719H39.0899V18.246C39.0899 18.4328 39.1642 18.612 39.2963 18.7442C39.4284 18.8763 39.6076 18.9505 39.7944 18.9505C39.9813 18.9505 40.1605 18.8763 40.2926 18.7442C40.4247 18.612 40.4989 18.4328 40.4989 18.246V7.018C40.4992 6.92557 40.4812 6.834 40.4459 6.74858C40.4106 6.66316 40.3587 6.58558 40.2932 6.52031C40.2278 6.45504 40.15 6.40339 40.0645 6.36832C39.979 6.33325 39.8874 6.31547 39.795 6.316ZM36.976 34.386H34.157V7.719H36.976V34.386ZM34.1579 1.4H36.9769V6.316H34.1579V1.4ZM35.567 39.181L34.4309 35.781H36.7029L35.567 39.181Z" fill="#E94A26"/>
<path d="M29.884 8.89995C29.876 8.87695 29.871 8.85595 29.861 8.83495C29.827 8.75847 29.7796 8.6887 29.721 8.62895L21.313 0.205953C21.2552 0.147737 21.1875 0.100324 21.113 0.0659531C21.0901 0.0566773 21.0668 0.0486652 21.043 0.0419531C20.9858 0.022623 20.9263 0.0108566 20.866 0.00695312C20.855 0.00695312 20.841 0.00195312 20.825 0.00195312H1.2C1.01435 0.00195313 0.836301 0.0757029 0.705025 0.206978C0.57375 0.338254 0.5 0.516302 0.5 0.701953V41.4C0.5 41.5856 0.57375 41.7637 0.705025 41.8949C0.836301 42.0262 1.01435 42.1 1.2 42.1H29.229C29.4147 42.1 29.5927 42.0262 29.724 41.8949C29.8552 41.7637 29.929 41.5856 29.929 41.4V9.12295C29.929 9.10795 29.921 9.09495 29.92 9.07995C29.916 9.01862 29.9039 8.95809 29.884 8.89995ZM27.537 8.42295H21.521V2.39995L27.537 8.42295ZM1.901 40.7V1.39995H20.12V9.12295C20.12 9.30861 20.1937 9.48665 20.325 9.61793C20.4563 9.7492 20.6343 9.82295 20.82 9.82295H28.528V40.7H1.901Z" fill="#E94A26"/>
<path d="M25.162 14.033H5.413C5.22615 14.033 5.04696 14.1072 4.91484 14.2393C4.78272 14.3714 4.7085 14.5506 4.7085 14.7375C4.7085 14.9243 4.78272 15.1035 4.91484 15.2356C5.04696 15.3677 5.22615 15.442 5.413 15.442H25.162C25.3488 15.442 25.528 15.3677 25.6602 15.2356C25.7923 15.1035 25.8665 14.9243 25.8665 14.7375C25.8665 14.5506 25.7923 14.3714 25.6602 14.2393C25.528 14.1072 25.3488 14.033 25.162 14.033Z" fill="#E94A26"/>
<path d="M25.162 18.2429H5.413C5.22615 18.2429 5.04696 18.3171 4.91484 18.4493C4.78272 18.5814 4.7085 18.7606 4.7085 18.9474C4.7085 19.1343 4.78272 19.3135 4.91484 19.4456C5.04696 19.5777 5.22615 19.6519 5.413 19.6519H25.162C25.3488 19.6519 25.528 19.5777 25.6602 19.4456C25.7923 19.3135 25.8665 19.1343 25.8665 18.9474C25.8665 18.7606 25.7923 18.5814 25.6602 18.4493C25.528 18.3171 25.3488 18.2429 25.162 18.2429Z" fill="#E94A26"/>
<path d="M25.162 22.4529H5.413C5.22615 22.4529 5.04696 22.5271 4.91484 22.6592C4.78272 22.7913 4.7085 22.9705 4.7085 23.1574C4.7085 23.3442 4.78272 23.5234 4.91484 23.6555C5.04696 23.7877 5.22615 23.8619 5.413 23.8619H25.162C25.3488 23.8619 25.528 23.7877 25.6602 23.6555C25.7923 23.5234 25.8665 23.3442 25.8665 23.1574C25.8665 22.9705 25.7923 22.7913 25.6602 22.6592C25.528 22.5271 25.3488 22.4529 25.162 22.4529Z" fill="#E94A26"/>
<path d="M25.162 26.6631H5.413C5.22615 26.6631 5.04696 26.7373 4.91484 26.8694C4.78272 27.0015 4.7085 27.1807 4.7085 27.3676C4.7085 27.5544 4.78272 27.7336 4.91484 27.8658C5.04696 27.9979 5.22615 28.0721 5.413 28.0721H25.162C25.3488 28.0721 25.528 27.9979 25.6602 27.8658C25.7923 27.7336 25.8665 27.5544 25.8665 27.3676C25.8665 27.1807 25.7923 27.0015 25.6602 26.8694C25.528 26.7373 25.3488 26.6631 25.162 26.6631Z" fill="#E94A26"/>
</svg>
