<svg xmlns="http://www.w3.org/2000/svg" width="19.202" height="20.065" viewBox="0 0 19.202 20.065">
  <g id="internet" transform="translate(-0.455 0.001)">
    <path id="Path_59" data-name="Path 59" d="M8.792,17.317H9.978a.337.337,0,0,1,.337.337v9.424a.337.337,0,0,0,.337.337h4.712a.337.337,0,0,0,.337-.337V21.692a.337.337,0,0,1,.337-.337H19.4a.337.337,0,0,1,.337.337v5.385a.337.337,0,0,0,.337.337h4.712a.337.337,0,0,0,.337-.337V17.653a.337.337,0,0,1,.337-.337h1.186a.337.337,0,0,0,.236-.579l-8.928-8.62a.336.336,0,0,0-.468,0l-8.93,8.62a.337.337,0,0,0,.234.579Zm0,0" transform="translate(-7.663 -7.687)" fill="#e94a26"/>
    <path id="Path_60" data-name="Path 60" d="M17.124,20.064H12.412a.673.673,0,0,1-.673-.673V14.005H8.373v5.385a.673.673,0,0,1-.673.673H2.988a.673.673,0,0,1-.673-.673V9.967H1.128A.673.673,0,0,1,.661,8.809L9.589.189a.67.67,0,0,1,.935,0l8.928,8.62a.673.673,0,0,1-.468,1.157H17.8v9.424A.673.673,0,0,1,17.124,20.064ZM8.373,13.332h3.366a.673.673,0,0,1,.673.673v5.385h4.712V9.967a.673.673,0,0,1,.673-.673h1.19L10.056.674,1.128,9.293H2.315a.673.673,0,0,1,.673.673v9.424H7.7V14.005A.673.673,0,0,1,8.373,13.332Zm0,0" transform="translate(0 0)" fill="#e94a26"/>
  </g>
</svg>
