<svg id="menu" xmlns="http://www.w3.org/2000/svg" width="19.49" height="19.49" viewBox="0 0 19.49 19.49">
  <g id="Group_40" data-name="Group 40" transform="translate(0.325 0.325)">
    <path id="Path_71" data-name="Path 71" d="M181.2,10.6A2.6,2.6,0,1,1,178.6,8,2.6,2.6,0,0,1,181.2,10.6Zm0,0" transform="translate(-169.179 -8)" fill="#f2f2f2"/>
    <path id="Path_72" data-name="Path 72" d="M181.2,346.6a2.6,2.6,0,1,1-2.6-2.6A2.6,2.6,0,0,1,181.2,346.6Zm0,0" transform="translate(-169.179 -330.357)" fill="#f2f2f2"/>
    <path id="Path_73" data-name="Path 73" d="M181.2,178.6a2.6,2.6,0,1,1-2.6-2.6A2.6,2.6,0,0,1,181.2,178.6Zm0,0" transform="translate(-169.179 -169.179)" fill="#f2f2f2"/>
    <path id="Path_74" data-name="Path 74" d="M349.2,10.6A2.6,2.6,0,1,1,346.6,8,2.6,2.6,0,0,1,349.2,10.6Zm0,0" transform="translate(-330.357 -8)" fill="#f2f2f2"/>
    <path id="Path_75" data-name="Path 75" d="M349.2,346.6a2.6,2.6,0,1,1-2.6-2.6A2.6,2.6,0,0,1,349.2,346.6Zm0,0" transform="translate(-330.357 -330.357)" fill="#f2f2f2"/>
    <path id="Path_76" data-name="Path 76" d="M349.2,178.6a2.6,2.6,0,1,1-2.6-2.6A2.6,2.6,0,0,1,349.2,178.6Zm0,0" transform="translate(-330.357 -169.179)" fill="#f2f2f2"/>
    <path id="Path_77" data-name="Path 77" d="M13.2,10.6A2.6,2.6,0,1,1,10.6,8,2.6,2.6,0,0,1,13.2,10.6Zm0,0" transform="translate(-8 -8)" fill="#f2f2f2"/>
    <path id="Path_78" data-name="Path 78" d="M13.2,346.6a2.6,2.6,0,1,1-2.6-2.6A2.6,2.6,0,0,1,13.2,346.6Zm0,0" transform="translate(-8 -330.357)" fill="#f2f2f2"/>
    <path id="Path_79" data-name="Path 79" d="M13.2,178.6a2.6,2.6,0,1,1-2.6-2.6A2.6,2.6,0,0,1,13.2,178.6Zm0,0" transform="translate(-8 -169.179)" fill="#f2f2f2"/>
  </g>
  <path id="Path_80" data-name="Path 80" d="M170.923,5.847a2.923,2.923,0,1,1,2.923-2.923A2.923,2.923,0,0,1,170.923,5.847Zm0-5.2A2.274,2.274,0,1,0,173.2,2.923,2.274,2.274,0,0,0,170.923.65Zm0,0" transform="translate(-161.179)" fill="#9a9a9a"/>
  <path id="Path_81" data-name="Path 81" d="M170.923,341.847a2.923,2.923,0,1,1,2.923-2.923A2.923,2.923,0,0,1,170.923,341.847Zm0-5.2a2.274,2.274,0,1,0,2.274,2.274A2.274,2.274,0,0,0,170.923,336.65Zm0,0" transform="translate(-161.179 -322.357)" fill="#9a9a9a"/>
  <path id="Path_82" data-name="Path 82" d="M170.923,173.847a2.923,2.923,0,1,1,2.923-2.923A2.923,2.923,0,0,1,170.923,173.847Zm0-5.2a2.274,2.274,0,1,0,2.274,2.274A2.274,2.274,0,0,0,170.923,168.65Zm0,0" transform="translate(-161.179 -161.179)" fill="#9a9a9a"/>
  <path id="Path_83" data-name="Path 83" d="M338.923,5.847a2.923,2.923,0,1,1,2.923-2.923A2.923,2.923,0,0,1,338.923,5.847Zm0-5.2A2.274,2.274,0,1,0,341.2,2.923,2.274,2.274,0,0,0,338.923.65Zm0,0" transform="translate(-322.357)" fill="#9a9a9a"/>
  <path id="Path_84" data-name="Path 84" d="M338.923,341.847a2.923,2.923,0,1,1,2.923-2.923A2.923,2.923,0,0,1,338.923,341.847Zm0-5.2a2.274,2.274,0,1,0,2.274,2.274A2.274,2.274,0,0,0,338.923,336.65Zm0,0" transform="translate(-322.357 -322.357)" fill="#9a9a9a"/>
  <path id="Path_85" data-name="Path 85" d="M338.923,173.847a2.923,2.923,0,1,1,2.923-2.923A2.923,2.923,0,0,1,338.923,173.847Zm0-5.2a2.274,2.274,0,1,0,2.274,2.274A2.274,2.274,0,0,0,338.923,168.65Zm0,0" transform="translate(-322.357 -161.179)" fill="#9a9a9a"/>
  <path id="Path_86" data-name="Path 86" d="M2.923,5.847A2.923,2.923,0,1,1,5.847,2.923,2.923,2.923,0,0,1,2.923,5.847Zm0-5.2A2.274,2.274,0,1,0,5.2,2.923,2.274,2.274,0,0,0,2.923.65Zm0,0" fill="#9a9a9a"/>
  <path id="Path_87" data-name="Path 87" d="M2.923,341.847a2.923,2.923,0,1,1,2.923-2.923A2.923,2.923,0,0,1,2.923,341.847Zm0-5.2A2.274,2.274,0,1,0,5.2,338.923,2.274,2.274,0,0,0,2.923,336.65Zm0,0" transform="translate(0 -322.357)" fill="#9a9a9a"/>
  <path id="Path_88" data-name="Path 88" d="M2.923,173.847a2.923,2.923,0,1,1,2.923-2.923A2.923,2.923,0,0,1,2.923,173.847Zm0-5.2A2.274,2.274,0,1,0,5.2,170.923,2.274,2.274,0,0,0,2.923,168.65Zm0,0" transform="translate(0 -161.179)" fill="#9a9a9a"/>
</svg>
