<svg width="80" height="70" viewBox="0 0 80 70" fill="none" xmlns="http://www.w3.org/2000/svg">
<path fill-rule="evenodd" clip-rule="evenodd" d="M30 30C33.9782 30 37.7936 28.4196 40.6066 25.6066C43.4197 22.7936 45 18.9782 45 15C45 11.0218 43.4197 7.20644 40.6066 4.3934C37.7936 1.58035 33.9782 0 30 0C26.0218 0 22.2064 1.58035 19.3934 4.3934C16.5804 7.20644 15 11.0218 15 15C15 18.9782 16.5804 22.7936 19.3934 25.6066C22.2064 28.4196 26.0218 30 30 30ZM30 40C37.9565 40 45.5871 43.1607 51.2132 48.7868C56.8393 54.4129 60 62.0435 60 70H0C0 62.0435 3.16071 54.4129 8.7868 48.7868C14.4129 43.1607 22.0435 40 30 40ZM68.5355 16.4645C69.4732 17.4021 70 18.6739 70 20V25H75C76.3261 25 77.5979 25.5268 78.5355 26.4645C79.4732 27.4021 80 28.6739 80 30C80 31.3261 79.4732 32.5979 78.5355 33.5355C77.5979 34.4732 76.3261 35 75 35H70V40C70 41.3261 69.4732 42.5979 68.5355 43.5355C67.5979 44.4732 66.3261 45 65 45C63.6739 45 62.4021 44.4732 61.4645 43.5355C60.5268 42.5979 60 41.3261 60 40V35H55C53.6739 35 52.4021 34.4732 51.4645 33.5355C50.5268 32.5979 50 31.3261 50 30C50 28.6739 50.5268 27.4021 51.4645 26.4645C52.4021 25.5268 53.6739 25 55 25H60V20C60 18.6739 60.5268 17.4021 61.4645 16.4645C62.4021 15.5268 63.6739 15 65 15C66.3261 15 67.5979 15.5268 68.5355 16.4645Z" fill="url(#paint0_linear)"/>
<defs>
<linearGradient id="paint0_linear" x1="18.3164" y1="12.6" x2="68.4661" y2="78.6953" gradientUnits="userSpaceOnUse">
<stop stop-color="#3C6697"/>
<stop offset="1" stop-color="#1E9F13"/>
</linearGradient>
</defs>
</svg>
