<svg width="116" height="116" viewBox="0 0 116 116" fill="none" xmlns="http://www.w3.org/2000/svg">
<path d="M83.6387 39.5962C85.4088 41.3662 85.4088 44.2354 83.6387 46.0046L53.2404 76.4038C51.4704 78.1729 48.6021 78.1729 46.8321 76.4038L32.3613 61.9321C30.5912 60.163 30.5912 57.2938 32.3613 55.5246C34.1304 53.7546 36.9996 53.7546 38.7687 55.5246L50.0358 66.7917L77.2304 39.5962C79.0004 37.8271 81.8696 37.8271 83.6387 39.5962V39.5962ZM116 58C116 90.0595 90.0551 116 58 116C25.9405 116 0 90.0551 0 58C0 25.9405 25.9449 0 58 0C90.0595 0 116 25.9449 116 58ZM106.938 58C106.938 30.9497 85.0468 9.0625 58 9.0625C30.9497 9.0625 9.0625 30.9532 9.0625 58C9.0625 85.0503 30.9532 106.938 58 106.938C85.0503 106.938 106.938 85.0468 106.938 58Z" fill="#479F60"/>
</svg>
