<svg width="8" height="15" viewBox="0 0 8 15" fill="none" xmlns="http://www.w3.org/2000/svg">
<path fill-rule="evenodd" clip-rule="evenodd" d="M0.157346 0.169473C0.207096 0.115753 0.266198 0.0731311 0.331265 0.0440502C0.396333 0.0149692 0.466088 0 0.536535 0C0.606982 0 0.676737 0.0149692 0.741804 0.0440502C0.806872 0.0731311 0.865973 0.115753 0.915724 0.169473L7.34265 7.09174C7.39253 7.14532 7.4321 7.20898 7.4591 7.27906C7.4861 7.34914 7.5 7.42428 7.5 7.50015C7.5 7.57603 7.4861 7.65116 7.4591 7.72124C7.4321 7.79132 7.39253 7.85498 7.34265 7.90857L0.915724 14.8308C0.815157 14.9391 0.678758 15 0.536535 15C0.394311 15 0.257913 14.9391 0.157346 14.8308C0.0567786 14.7225 0.000280411 14.5756 0.000280411 14.4224C0.000280411 14.2692 0.0567786 14.1223 0.157346 14.014L6.20616 7.50015L0.157346 0.9863C0.107469 0.932716 0.0678976 0.869059 0.0408976 0.798977C0.0138976 0.728894 0 0.653763 0 0.577887C0 0.50201 0.0138976 0.426879 0.0408976 0.356797C0.0678976 0.286715 0.107469 0.223058 0.157346 0.169473Z" fill="#C9C9C9"/>
</svg>
