<svg width="58" height="58" viewBox="0 0 58 58" fill="none" xmlns="http://www.w3.org/2000/svg">
<circle cx="29" cy="29" r="29" fill="#C9C9C9"/>
<path d="M17.8742 19.2507L14.2848 15.6594C14.1947 15.5693 14.1233 15.4624 14.0745 15.3448C14.0258 15.2271 14.0007 15.101 14.0007 14.9737C14.0007 14.8463 14.0258 14.7202 14.0745 14.6026C14.1233 14.4849 14.1947 14.378 14.2848 14.2879C14.3748 14.1979 14.4817 14.1265 14.5994 14.0777C14.717 14.029 14.8431 14.0039 14.9705 14.0039C15.0978 14.0039 15.2239 14.029 15.3416 14.0777C15.4593 14.1265 15.5662 14.1979 15.6562 14.2879L19.2476 17.8812L41.1192 39.7528L44.7124 43.3442C44.8943 43.526 44.9965 43.7727 44.9965 44.0299C44.9965 44.2871 44.8943 44.5337 44.7124 44.7156C44.5306 44.8975 44.2839 44.9996 44.0267 44.9996C43.7695 44.9996 43.5228 44.8975 43.341 44.7156L39.7496 41.1223C36.9211 43.625 33.2734 45.004 29.4967 44.9984C27.0651 45.0022 24.6671 44.4314 22.498 43.3325L22.2636 43.2066L15.2029 44.9694C15.0671 45.0035 14.9254 45.0078 14.7877 44.9819C14.65 44.956 14.5195 44.9005 14.4054 44.8193C14.2912 44.7381 14.196 44.6331 14.1263 44.5115C14.0567 44.3899 14.0143 44.2547 14.002 44.1151V43.9563L14.0291 43.7955L15.7918 36.7368L15.6698 36.5043C14.7833 34.7593 14.2377 32.8613 14.062 30.912L14.0136 30.172L14 29.5018C13.9944 25.726 15.3727 22.079 17.8742 19.2507V19.2507ZM31.3718 32.7464L30.0642 31.4389H24.654L24.4796 31.4544C24.2563 31.4948 24.0543 31.6124 23.9088 31.7865C23.7633 31.9607 23.6836 32.1805 23.6836 32.4074C23.6836 32.6343 23.7633 32.8541 23.9088 33.0283C24.0543 33.2024 24.2563 33.32 24.4796 33.3604L24.654 33.3759H30.4652L30.6395 33.3604C30.8043 33.3301 30.9583 33.2576 31.0867 33.15C31.215 33.0424 31.3132 32.9033 31.3718 32.7464ZM26.1901 27.5647L24.315 25.6896C24.1166 25.7639 23.948 25.9012 23.8351 26.0804C23.7223 26.2597 23.6712 26.471 23.6899 26.682C23.7086 26.893 23.796 27.0921 23.9386 27.2487C24.0812 27.4054 24.2713 27.5109 24.4796 27.5492L24.654 27.5647H26.1901Z" fill="white"/>
<path d="M34.3392 27.565H31.6679L42.3161 38.2112C44.3445 35.2286 45.2689 31.6319 44.93 28.0408C44.5912 24.4498 43.0102 21.0894 40.4597 18.5389C37.9092 15.9884 34.5488 14.4074 30.9578 14.0686C27.3667 13.7297 23.77 14.6541 20.7874 16.6825L29.7289 25.628H34.3392L34.5135 25.6435C34.7368 25.6839 34.9388 25.8015 35.0843 25.9756C35.2298 26.1498 35.3095 26.3696 35.3095 26.5965C35.3095 26.8235 35.2298 27.0432 35.0843 27.2174C34.9388 27.3916 34.7368 27.5091 34.5135 27.5496L34.3392 27.565Z" fill="white"/>
</svg>
