<svg width="16" height="4" viewBox="0 0 16 4" fill="none" xmlns="http://www.w3.org/2000/svg">
<path d="M1.972 4C3.06111 4 3.944 3.10457 3.944 2C3.944 0.895431 3.06111 0 1.972 0C0.882894 0 0 0.895431 0 2C0 3.10457 0.882894 4 1.972 4Z" fill="#505050"/>
<path d="M8.00008 4C9.08918 4 9.97208 3.10457 9.97208 2C9.97208 0.895431 9.08918 0 8.00008 0C6.91097 0 6.02808 0.895431 6.02808 2C6.02808 3.10457 6.91097 4 8.00008 4Z" fill="#505050"/>
<path d="M14.0277 4C15.1168 4 15.9997 3.10457 15.9997 2C15.9997 0.895431 15.1168 0 14.0277 0C12.9386 0 12.0557 0.895431 12.0557 2C12.0557 3.10457 12.9386 4 14.0277 4Z" fill="#505050"/>
</svg>
