<svg width="58" height="58" viewBox="0 0 58 58" fill="none" xmlns="http://www.w3.org/2000/svg">
<circle cx="29" cy="29" r="29" fill="#C9C9C9"/>
<path d="M13.5246 14.4637L41.682 42.6211C41.8251 42.7544 41.9399 42.9153 42.0195 43.094C42.0992 43.2727 42.142 43.4656 42.1454 43.6612C42.1489 43.8568 42.1129 44.0511 42.0396 44.2325C41.9664 44.4139 41.8573 44.5787 41.719 44.717C41.5806 44.8554 41.4158 44.9644 41.2344 45.0377C41.053 45.111 40.8587 45.1469 40.6631 45.1435C40.4675 45.14 40.2746 45.0972 40.0959 45.0176C39.9172 44.938 39.7564 44.8232 39.623 44.68L32.269 37.328H18.2097C17.2692 37.3292 16.3377 37.1453 15.4683 36.7865C14.5989 36.4278 13.8087 35.9013 13.1428 35.2372C12.4768 34.5731 11.9482 33.7843 11.5872 32.9159C11.2261 32.0475 11.0396 31.1164 11.0383 30.176C11.0408 28.3183 11.7651 26.5343 13.0583 25.2006C14.3514 23.8668 16.1121 23.0878 17.9689 23.0278L11.4637 16.5226C11.3205 16.3893 11.2057 16.2284 11.1261 16.0497C11.0465 15.871 11.0037 15.6781 11.0002 15.4825C10.9968 15.2869 11.0328 15.0926 11.106 14.9112C11.1793 14.7298 11.2884 14.565 11.4267 14.4267C11.565 14.2884 11.7298 14.1793 11.9112 14.106C12.0926 14.0328 12.2869 13.9968 12.4825 14.0002C12.6781 14.0037 12.871 14.0465 13.0497 14.1261C13.2284 14.2057 13.3893 14.3205 13.5226 14.4637H13.5246ZM28.5201 14.0286C34.6737 14.0286 38.1643 18.1018 38.6732 23.022H38.8286C39.7692 23.0207 40.7009 23.2048 41.5704 23.5636C42.4399 23.9225 43.2302 24.4491 43.8962 25.1134C44.5622 25.7778 45.0907 26.5668 45.4517 27.4354C45.8127 28.3041 45.999 29.2353 46 30.176C45.9985 31.8119 45.4368 33.398 44.4084 34.6703C43.3799 35.9426 41.9468 36.8243 40.3475 37.1687L20.6144 17.4298C22.3315 15.3591 24.9849 14.0286 28.5162 14.0286H28.5201Z" fill="white"/>
</svg>
