<svg width="58" height="58" viewBox="0 0 58 58" fill="none" xmlns="http://www.w3.org/2000/svg">
<circle cx="29" cy="29" r="29" fill="#C9C9C9"/>
<path d="M18.7143 13.5714V18.7143H13.5714V13.5714H18.7143ZM11 11V21.2857H21.2857V11H11Z" fill="white"/>
<path d="M31.5715 17.4284V22.5712H26.4286V17.4284H31.5715ZM23.8572 14.8569V25.1426H34.1429V14.8569H23.8572Z" fill="white"/>
<path d="M18.7143 29.0001V34.143H13.5714V29.0001H18.7143ZM11 26.4287V36.7144H21.2857V26.4287H11Z" fill="white"/>
<path d="M36.7142 21.2856V28.9999H28.9999V36.7142H21.2856V46.9999H46.9999V21.2856H36.7142ZM31.5714 31.5714H36.7142V36.7142H31.5714V31.5714ZM28.9999 44.4285H23.8571V39.2856H28.9999V44.4285ZM36.7142 44.4285H31.5714V39.2856H36.7142V44.4285ZM44.4285 44.4285H39.2856V39.2856H44.4285V44.4285ZM44.4285 36.7142H39.2856V31.5714H44.4285V36.7142ZM39.2856 28.9999V23.8571H44.4285V28.9999H39.2856Z" fill="white"/>
</svg>
