<svg width="105" height="105" viewBox="0 0 105 105" fill="none" xmlns="http://www.w3.org/2000/svg">
<path d="M14.7656 41.0156V32.8125C14.7656 25.4154 17.7041 18.3214 22.9346 13.0908C28.1651 7.86034 35.2592 4.92188 42.6562 4.92188C50.0533 4.92188 57.1474 7.86034 62.3779 13.0908C67.6084 18.3214 70.5469 25.4154 70.5469 32.8125V41.0156H14.7656Z" fill="#734B39"/>
<path d="M63.9844 47.5781C67.6087 47.5781 70.5469 44.64 70.5469 41.0156C70.5469 37.3913 67.6087 34.4531 63.9844 34.4531C60.36 34.4531 57.4219 37.3913 57.4219 41.0156C57.4219 44.64 60.36 47.5781 63.9844 47.5781Z" fill="#F0C6A4"/>
<path d="M21.3281 47.5781C24.9525 47.5781 27.8906 44.64 27.8906 41.0156C27.8906 37.3913 24.9525 34.4531 21.3281 34.4531C17.7038 34.4531 14.7656 37.3913 14.7656 41.0156C14.7656 44.64 17.7038 47.5781 21.3281 47.5781Z" fill="#F0C6A4"/>
<path d="M21.3281 32.8125H36.0938C43.3424 32.8125 49.2188 26.2018 49.2188 18.0469C53.1348 18.0469 56.8905 19.6025 59.6596 22.3716C62.4287 25.1407 63.9844 28.8964 63.9844 32.8125V39.375C63.9844 45.0316 61.7373 50.4565 57.7375 54.4563C53.7377 58.4561 48.3128 60.7031 42.6562 60.7031C36.9997 60.7031 31.5748 58.4561 27.575 54.4563C23.5752 50.4565 21.3281 45.0316 21.3281 39.375V32.8125Z" fill="#F7CCA9"/>
<path d="M73.8281 67.2656V100.078H11.4844V67.2656C11.4844 65.5251 12.1758 63.8559 13.4065 62.6252C14.6372 61.3945 16.3064 60.7031 18.0469 60.7031H67.2656C69.0061 60.7031 70.6753 61.3945 71.906 62.6252C73.1367 63.8559 73.8281 65.5251 73.8281 67.2656Z" fill="#E9EEF2"/>
<path d="M73.8281 70.5469H96.7969V100.078H73.8281V70.5469Z" fill="#EB423F"/>
<path d="M88.5938 78.75H82.0312C81.5961 78.75 81.1788 78.5772 80.8712 78.2695C80.5635 77.9618 80.3906 77.5445 80.3906 77.1094C80.3906 76.6743 80.5635 76.257 80.8712 75.9493C81.1788 75.6416 81.5961 75.4688 82.0312 75.4688H88.5938C89.0289 75.4688 89.4462 75.6416 89.7538 75.9493C90.0615 76.257 90.2344 76.6743 90.2344 77.1094C90.2344 77.5445 90.0615 77.9618 89.7538 78.2695C89.4462 78.5772 89.0289 78.75 88.5938 78.75Z" fill="#FFB632"/>
<path d="M90.2344 85.3125H80.5957C80.1606 85.3125 79.7433 85.1397 79.4356 84.832C79.1279 84.5243 78.9551 84.107 78.9551 83.6719C78.9551 83.2368 79.1279 82.8195 79.4356 82.5118C79.7433 82.2041 80.1606 82.0312 80.5957 82.0312H90.2344C90.6695 82.0312 91.0868 82.2041 91.3945 82.5118C91.7022 82.8195 91.875 83.2368 91.875 83.6719C91.875 84.107 91.7022 84.5243 91.3945 84.832C91.0868 85.1397 90.6695 85.3125 90.2344 85.3125Z" fill="#FFB632"/>
<path d="M100.078 93.5156V96.7969C100.078 97.6671 99.7324 98.5017 99.1171 99.1171C98.5017 99.7324 97.6671 100.078 96.7969 100.078H90.2344V90.2344H96.7969C97.6671 90.2344 98.5017 90.5801 99.1171 91.1954C99.7324 91.8108 100.078 92.6454 100.078 93.5156Z" fill="#F7CCA9"/>
<path d="M21.3292 91.8746C21.0243 91.8748 20.7254 91.79 20.466 91.6298C20.2066 91.4695 19.997 91.2401 19.8607 90.9674L3.4544 58.1549C3.35605 57.962 3.29686 57.7515 3.28023 57.5356C3.26361 57.3197 3.28988 57.1027 3.35754 56.897C3.4252 56.6913 3.53291 56.5011 3.67445 56.3372C3.81599 56.1734 3.98856 56.0391 4.18222 55.9423C4.37589 55.8454 4.5868 55.7879 4.80281 55.773C5.01882 55.758 5.23565 55.786 5.4408 55.8552C5.64595 55.9245 5.83537 56.0337 5.99812 56.1765C6.16087 56.3193 6.29374 56.4929 6.38907 56.6873L22.7953 89.4998C22.9204 89.7499 22.9796 90.0278 22.9671 90.3071C22.9547 90.5864 22.871 90.8579 22.7242 91.0959C22.5773 91.3338 22.372 91.5302 22.1279 91.6665C21.8838 91.8028 21.6088 91.8745 21.3292 91.8746Z" fill="#C3C6C7"/>
<path d="M50.8594 70.5469H73.8281V100.078H50.8594V70.5469Z" fill="#D13330"/>
<path d="M18.0469 96.7969V93.5156C18.0469 92.6454 18.3926 91.8108 19.0079 91.1954C19.6233 90.5801 20.4579 90.2344 21.3281 90.2344H27.8906V100.078H21.3281C20.4579 100.078 19.6233 99.7324 19.0079 99.1171C18.3926 98.5017 18.0469 97.6671 18.0469 96.7969Z" fill="#F7CCA9"/>
<path d="M42.6562 54.1321C40.6942 54.1321 38.7318 53.4963 36.8242 52.2248C36.6437 52.1059 36.4885 51.9524 36.3675 51.7732C36.2465 51.5941 36.1621 51.3928 36.1191 51.1809C36.0762 50.969 36.0755 50.7508 36.1172 50.5386C36.1589 50.3265 36.2421 50.1247 36.362 49.9448C36.482 49.765 36.6363 49.6106 36.8161 49.4905C36.9958 49.3705 37.1976 49.2872 37.4097 49.2453C37.6218 49.2035 37.8401 49.204 38.052 49.2469C38.2639 49.2897 38.4652 49.3739 38.6445 49.4948C41.3812 51.32 43.9312 51.32 46.6679 49.4948C47.03 49.2562 47.4718 49.1706 47.8967 49.2568C48.3217 49.3429 48.6953 49.5938 48.9358 49.9545C49.1764 50.3153 49.2643 50.7566 49.1804 51.182C49.0966 51.6075 48.8477 51.9824 48.4882 52.2248C46.5806 53.4963 44.6182 54.1321 42.6562 54.1321Z" fill="#452D23"/>
<path d="M41.0156 60.7031H44.2969V100.078H41.0156V60.7031Z" fill="#E1E3E6"/>
<path d="M37.7344 100.078L39.375 70.5469H45.9375L47.5781 100.078H42.6562H37.7344Z" fill="#4F5659"/>
<path d="M39.375 60.7031H45.9375V70.5469H39.375V60.7031Z" fill="#606669"/>
<path d="M44.2969 60.7031L31.1719 70.5469V60.7031H44.2969Z" fill="#DADCDE"/>
<path d="M41.0156 60.7031L54.1406 70.5469V60.7031H41.0156Z" fill="#DADCDE"/>
<path d="M34.4531 31.1719C32.5629 31.1743 30.7314 31.8284 29.2672 33.0238C27.803 34.2192 26.7957 35.8829 26.4151 37.7344H21.3281V41.0156H26.4151C26.7255 42.5364 27.461 43.9379 28.5362 45.0573C29.6113 46.1767 30.982 46.9682 32.489 47.3397C33.996 47.7112 35.5775 47.6475 37.0498 47.1561C38.5221 46.6646 39.8247 45.7656 40.8064 44.5634C41.7881 43.3611 42.4086 41.9051 42.5957 40.3643C42.7829 38.8235 42.5291 37.2612 41.8638 35.8589C41.1985 34.4566 40.1491 33.2718 38.8373 32.4421C37.5255 31.6125 36.0053 31.172 34.4531 31.1719ZM34.4531 44.2969C33.4797 44.2969 32.5281 44.0082 31.7187 43.4674C30.9093 42.9266 30.2784 42.1579 29.9059 41.2585C29.5334 40.3592 29.4359 39.3695 29.6258 38.4148C29.8157 37.46 30.2845 36.583 30.9728 35.8947C31.6612 35.2064 32.5382 34.7376 33.4929 34.5477C34.4477 34.3578 35.4373 34.4553 36.3366 34.8278C37.236 35.2003 38.0047 35.8312 38.5455 36.6406C39.0863 37.45 39.375 38.4015 39.375 39.375C39.3735 40.6799 38.8544 41.9309 37.9317 42.8536C37.009 43.7763 35.758 44.2954 34.4531 44.2969Z" fill="#4F5659"/>
<path d="M34.4531 41.0156C35.3592 41.0156 36.0938 40.2811 36.0938 39.375C36.0938 38.4689 35.3592 37.7344 34.4531 37.7344C33.547 37.7344 32.8125 38.4689 32.8125 39.375C32.8125 40.2811 33.547 41.0156 34.4531 41.0156Z" fill="#452D23"/>
<path d="M63.9844 37.7344H58.8985C58.4919 35.7426 57.3603 33.9727 55.7229 32.7679C54.0856 31.5631 52.0592 31.0091 50.0366 31.2134C48.014 31.4178 46.1394 32.3658 44.7761 33.8738C43.4128 35.3817 42.658 37.3422 42.658 39.375C42.658 41.4079 43.4128 43.3683 44.7761 44.8763C46.1394 46.3842 48.014 47.3323 50.0366 47.5366C52.0592 47.7409 54.0856 47.187 55.7229 45.9821C57.3603 44.7773 58.4919 43.0074 58.8985 41.0156H63.9844V37.7344ZM50.8594 44.2969C49.886 44.2969 48.9344 44.0082 48.125 43.4674C47.3156 42.9266 46.6847 42.1579 46.3122 41.2585C45.9397 40.3592 45.8422 39.3696 46.0321 38.4148C46.222 37.4601 46.6908 36.5831 47.3791 35.8947C48.0675 35.2064 48.9445 34.7376 49.8992 34.5477C50.854 34.3578 51.8436 34.4553 52.7429 34.8278C53.6423 35.2003 54.411 35.8312 54.9518 36.6406C55.4926 37.45 55.7813 38.4016 55.7813 39.375C55.7798 40.6799 55.2607 41.9309 54.338 42.8536C53.4153 43.7763 52.1643 44.2954 50.8594 44.2969Z" fill="#4F5659"/>
<path d="M50.8594 41.0156C51.7655 41.0156 52.5 40.2811 52.5 39.375C52.5 38.4689 51.7655 37.7344 50.8594 37.7344C49.9533 37.7344 49.2188 38.4689 49.2188 39.375C49.2188 40.2811 49.9533 41.0156 50.8594 41.0156Z" fill="#452D23"/>
</svg>
