<svg width="100" height="100" viewBox="0 0 100 100" fill="none" xmlns="http://www.w3.org/2000/svg">
<g clip-path="url(#clip0)">
<path d="M73.6753 41.8632H73.7089C76.6007 41.8632 78.9438 39.5181 78.9438 36.6282C78.9438 33.7364 76.6007 31.3911 73.7089 31.3911C73.6712 31.3911 73.6337 31.3911 73.596 31.3931H25.6589C25.6212 31.3911 25.5837 31.3911 25.546 31.3911C22.6542 31.3911 20.311 33.7362 20.311 36.6282C20.311 39.5181 22.6542 41.8632 25.546 41.8632H25.5796" fill="#F1B986"/>
<path d="M72.4711 17.721C57.242 16.2447 42.0129 16.2447 26.7838 17.721C25.602 27.19 25.2539 36.6587 25.7395 46.1277C26.093 53.0205 31.6086 58.507 38.5029 58.8326C45.9193 59.1828 53.3356 59.1828 60.752 58.8326C67.6461 58.507 73.1619 53.0207 73.5154 46.1277C74.001 36.6587 73.6529 27.1898 72.4711 17.721Z" fill="#F1D0A5"/>
<path d="M26.7845 17.7192C34.3978 16.981 42.0132 16.6128 49.6286 16.6128C45.7732 16.6128 41.9177 16.9854 38.0622 17.7306C37.4624 27.2907 37.2874 36.8511 37.5329 46.4091C37.6943 52.7001 39.9935 57.83 43.0105 59.0001C41.5087 58.9593 40.0046 58.9024 38.5031 58.8319C31.6101 58.5071 26.0939 53.0204 25.7394 46.1273C25.2556 36.6581 25.6033 27.1886 26.7845 17.7192Z" fill="#F1B986"/>
<path d="M49.6275 51.2262C46.9654 51.2262 44.5076 49.6719 43.366 47.2662C43.0088 46.5133 43.3295 45.6131 44.0824 45.2559C44.8355 44.8987 45.7353 45.2194 46.0928 45.9723C46.7373 47.3305 48.1248 48.208 49.6277 48.208C51.1306 48.208 52.5181 47.3305 53.1629 45.9723C53.5201 45.2196 54.4201 44.8987 55.1732 45.2561C55.9262 45.6135 56.2469 46.5135 55.8894 47.2664C54.7474 49.6719 52.2896 51.2262 49.6275 51.2262Z" fill="#C32430"/>
<path d="M38.4805 41.0521C39.6843 41.0521 40.6602 39.5994 40.6602 37.8075C40.6602 36.0156 39.6843 34.563 38.4805 34.563C37.2767 34.563 36.3008 36.0156 36.3008 37.8075C36.3008 39.5994 37.2767 41.0521 38.4805 41.0521Z" fill="#454045"/>
<path d="M60.7744 41.0521C61.9782 41.0521 62.9541 39.5994 62.9541 37.8075C62.9541 36.0156 61.9782 34.563 60.7744 34.563C59.5706 34.563 58.5947 36.0156 58.5947 37.8075C58.5947 39.5994 59.5706 41.0521 60.7744 41.0521Z" fill="#454045"/>
<path d="M62.3119 25.5947C53.5586 28.9762 41.1246 27.4852 34.8582 21.2188C34.8582 21.2188 33.3701 31.393 25.6606 31.393L22.2987 32.5236C13.3196 -2.72188 32.4713 6.69551 32.4713 6.69551C34.2795 3.19141 36.9131 1.74082 39.6649 1.39082C39.9071 1.36094 40.1494 1.33848 40.3932 1.32344C40.4127 1.32344 40.4321 1.32187 40.4516 1.32051C42.3899 1.21738 44.352 1.61055 46.0957 2.17148C46.703 2.36738 47.2846 2.58281 47.8291 2.80566C50.0201 3.70156 51.6158 4.70801 51.9508 4.92344C51.9942 4.95332 52.0166 4.96836 52.0166 4.96836C53.9877 2.35996 55.8676 0 57.9344 0C58.7824 0 59.3686 0.324609 59.7619 0.843555C61.253 2.79824 60.0281 7.49863 59.9295 7.86816L59.925 7.88457C59.9266 7.88164 59.928 7.87559 59.9311 7.86816L59.9416 7.84121C60.2061 7.17402 63.1674 0 68.478 0C68.8129 0 69.1135 0.0314453 69.3813 0.0912109C73.3399 0.966016 70.2412 7.89043 69.9002 8.62324L69.8912 8.64414C69.8823 8.66211 69.8762 8.67559 69.8733 8.68145C70.0422 8.46602 76.6721 0.0492189 79.6182 3.91074C79.6198 3.91367 79.6198 3.91367 79.6211 3.91523C82.593 7.83223 71.0608 22.2148 62.3119 25.5947Z" fill="#F4DD45"/>
<path d="M79.6181 3.91052H79.6165C78.1269 2.42243 72.9673 9.44704 69.8687 8.68572L69.8911 8.64392C69.8821 8.66189 69.8761 8.67537 69.8731 8.68122C70.0423 8.46599 76.672 0.0491924 79.6181 3.91052Z" fill="#ECC32E"/>
<path d="M69.3813 0.0912109C67.1436 -0.416992 65.0693 3.84238 63.8973 6.86602C63.3305 8.32832 61.575 8.91504 60.242 8.08887L59.9219 7.89043L59.9248 7.88438L59.9293 7.86797H59.9309L59.9414 7.84102C60.2061 7.17402 63.1674 0 68.4779 0C68.8129 0 69.1137 0.0314453 69.3813 0.0912109Z" fill="#ECC32E"/>
<path d="M39.6645 1.39062C33.2605 2.51973 30.8408 17.2016 34.8578 21.2186C34.8578 21.2186 33.3697 31.3928 25.6602 31.3928L22.2982 32.5234C13.3189 -2.72207 32.4709 6.69531 32.4709 6.69531C34.2789 3.19121 36.9127 1.74063 39.6645 1.39062Z" fill="#ECC32E"/>
<path d="M59.7619 0.843555C57.5111 -1.40723 56.0111 10.1354 50.9441 11.9838C45.8773 13.8322 45.4031 11.4693 45.4031 11.4693V11.4678C47.8976 10.5451 50.0033 7.62871 52.0148 4.9666C52.0164 4.96816 52.0164 4.96816 52.0164 4.96816C52.0777 4.88594 52.139 4.80508 52.2003 4.72441C52.2765 4.62129 52.3558 4.51797 52.4335 4.41641C54.2554 2.03691 56.014 0 57.9343 0C58.7824 0 59.3685 0.324609 59.7619 0.843555Z" fill="#ECC32E"/>
<path d="M40.4557 1.32168C40.4348 1.32168 40.4139 1.32168 40.3928 1.32324C40.4124 1.32324 40.4317 1.32168 40.4512 1.32031L40.4557 1.32168Z" fill="#ECC32E"/>
<path d="M79.8961 47.6115L53.7436 53.2793L53.7432 53.2795V53.2789H46.2563V53.2793L46.2559 53.2791L20.1034 47.6113C17.4362 47.032 14.9143 49.066 14.9143 51.7947V83.2797C14.9143 85.2949 16.3206 87.0383 18.2893 87.4648L46.2559 93.5256L46.2563 93.5254V93.5256H53.7432V93.5254L53.7436 93.5256L81.7102 87.4648C83.679 87.0383 85.0852 85.2949 85.0852 83.2797V51.7949C85.0852 49.0662 82.5633 47.0322 79.8961 47.6115Z" fill="#DFEAEF"/>
<path d="M87.9012 54.9195V88.9316C87.9012 91.1088 86.3821 92.992 84.2553 93.4527L54.0442 100L50.1448 97.5336V59.0947L54.0442 56.5232L82.2957 50.4006C85.177 49.7746 87.9012 51.9719 87.9012 54.9195Z" fill="#DA4A54"/>
<path d="M50.1449 59.0948V97.5337L45.9557 100L15.7445 93.4529C13.6178 92.9921 12.0986 91.1087 12.0986 88.9318V54.9196C12.0986 51.972 14.823 49.7747 17.7043 50.4005L45.9559 56.5232L50.1449 59.0948Z" fill="#C32430"/>
<path d="M45.9558 100V56.5229H54.0437V100" fill="#DD636E"/>
<path d="M64.2439 68.0242C63.549 68.0242 62.9238 67.5414 62.7707 66.8346C62.5941 66.0201 63.1113 65.2166 63.9257 65.04L80.6359 61.4184C81.4511 61.2418 82.2539 61.759 82.4304 62.5734C82.607 63.3879 82.0898 64.1914 81.2753 64.368L64.5652 67.9896C64.4572 68.0131 64.3498 68.0242 64.2439 68.0242Z" fill="#454045"/>
<path d="M64.2439 73.6321C63.549 73.6321 62.9238 73.1493 62.7707 72.4424C62.5941 71.628 63.1113 70.8244 63.9257 70.6479L80.6359 67.0262C81.4511 66.8498 82.2539 67.3668 82.4304 68.1813C82.607 68.9957 82.0898 69.7993 81.2753 69.9758L64.5652 73.5975C64.4572 73.6209 64.3498 73.6321 64.2439 73.6321Z" fill="#454045"/>
<path d="M11.2692 71.3531H9.68701C7.35049 71.3531 5.45654 69.459 5.45654 67.1227V63.3252C5.45654 60.9887 7.35068 59.0947 9.68701 59.0947H11.2692C13.6058 59.0947 15.4997 60.9889 15.4997 63.3252V67.1227C15.4997 69.4592 13.6056 71.3531 11.2692 71.3531Z" fill="#F1D0A5"/>
<path d="M12.0813 71.2735C11.8198 71.3278 11.5462 71.354 11.2685 71.354H9.68486C7.34893 71.354 5.45557 69.4587 5.45557 67.1226V63.3257C5.45557 60.9876 7.34893 59.0942 9.68486 59.0942H11.2685C11.5462 59.0942 11.8198 59.1204 12.0813 59.1747C10.1356 59.553 8.66689 61.2673 8.66689 63.3257V67.1226C8.66689 69.1812 10.1356 70.8954 12.0813 71.2735Z" fill="#F1B986"/>
<path d="M90.3147 71.3531H88.7324C86.3959 71.3531 84.502 69.459 84.502 67.1227V63.3252C84.502 60.9887 86.3961 59.0947 88.7324 59.0947H90.3147C92.6512 59.0947 94.5451 60.9889 94.5451 63.3252V67.1227C94.5451 69.4592 92.651 71.3531 90.3147 71.3531Z" fill="#F1D0A5"/>
<path d="M91.1268 71.2735C90.8652 71.3278 90.5916 71.354 90.3139 71.354H88.7303C86.3943 71.354 84.501 69.4587 84.501 67.1226V63.3257C84.501 60.9876 86.3943 59.0942 88.7303 59.0942H90.3139C90.5916 59.0942 90.8652 59.1204 91.1268 59.1747C89.1811 59.553 87.7123 61.2673 87.7123 63.3257V67.1226C87.7123 69.1812 89.1811 70.8954 91.1268 71.2735Z" fill="#F1B986"/>
</g>
<defs>
<clipPath id="clip0">
<rect width="100" height="100" fill="white"/>
</clipPath>
</defs>
</svg>
