<svg width="120" height="120" viewBox="0 0 120 120" fill="none" xmlns="http://www.w3.org/2000/svg">
<circle cx="60" cy="60" r="60" fill="#EDEDED"/>
<path d="M87.7319 92.1013C74.8824 87.4203 70.7746 83.4689 70.7746 75.0086C70.7746 69.9314 74.9849 66.6409 76.4201 62.2895C77.8554 57.9381 78.6856 52.7862 79.3757 49.0386C80.0658 45.291 80.3401 43.8415 80.7153 39.8485C81.1742 34.8651 77.8381 22 60 22C42.1672 22 38.8205 34.8651 39.2897 39.8485C39.665 43.8415 39.9407 45.2912 40.6293 49.0386C41.318 52.7861 42.1402 57.9377 43.5745 62.2895C45.0087 66.6412 49.225 69.9314 49.225 75.0086C49.225 83.4689 45.1173 87.4202 32.2679 92.1013C19.3717 96.7928 11 101.419 11 104.687V120H109V104.687C109 101.424 100.623 96.798 87.7319 92.1013V92.1013Z" fill="url(#paint0_linear)"/>
<defs>
<linearGradient id="paint0_linear" x1="54.1813" y1="29.7079" x2="94.7499" y2="131.046" gradientUnits="userSpaceOnUse">
<stop stop-color="#3C6697"/>
<stop offset="1" stop-color="#3B9B50"/>
</linearGradient>
</defs>
</svg>
