<svg width="169" height="169" viewBox="0 0 169 169" fill="none" xmlns="http://www.w3.org/2000/svg">
<path d="M169 84.5C169 106.911 160.097 128.404 144.251 144.251C128.404 160.097 106.911 169 84.5 169C62.0892 169 40.5963 160.097 24.7495 144.251C8.90265 128.404 0 106.911 0 84.5C0 62.0892 8.90265 40.5963 24.7495 24.7495C40.5963 8.90265 62.0892 0 84.5 0C106.911 0 128.404 8.90265 144.251 24.7495C160.097 40.5963 169 62.0892 169 84.5V84.5ZM127.067 52.4956C126.312 51.7438 125.414 51.1518 124.426 50.7551C123.437 50.3584 122.379 50.1651 121.314 50.1868C120.249 50.2085 119.199 50.4447 118.228 50.8813C117.256 51.318 116.383 51.946 115.659 52.728L78.9758 99.4671L56.8685 77.3492C55.3668 75.9499 53.3805 75.1881 51.3282 75.2243C49.2759 75.2605 47.3178 76.0919 45.8664 77.5433C44.4149 78.9947 43.5836 80.9529 43.5473 83.0052C43.5111 85.0575 44.2729 87.0437 45.6722 88.5454L73.6206 116.504C74.3735 117.256 75.2701 117.848 76.2569 118.246C77.2436 118.643 78.3003 118.838 79.3639 118.818C80.4276 118.798 81.4763 118.565 82.4477 118.131C83.419 117.697 84.293 117.072 85.0176 116.293L127.183 63.5862C128.621 62.0916 129.415 60.093 129.395 58.0194C129.375 55.9458 128.543 53.9626 127.077 52.4956H127.067Z" fill="url(#paint0_linear)"/>
<defs>
<linearGradient id="paint0_linear" x1="38.6934" y1="30.42" x2="163.146" y2="173.941" gradientUnits="userSpaceOnUse">
<stop stop-color="#3C6697"/>
<stop offset="1" stop-color="#1E9F13"/>
</linearGradient>
</defs>
</svg>
