<svg width="64" height="64" viewBox="0 0 64 64" fill="none" xmlns="http://www.w3.org/2000/svg">
<path fill-rule="evenodd" clip-rule="evenodd" d="M56.9036 22.0955H63.5626V11.8045C63.559 8.67483 62.3141 5.67441 60.1011 3.46143C57.8882 1.24844 54.8877 0.00360488 51.7581 0H41.467V6.65893H51.7581C53.1228 6.65893 54.4316 7.20105 55.3966 8.16602C56.3615 9.131 56.9036 10.4398 56.9036 11.8045V22.0955ZM41.467 63.5623H51.7581C54.8877 63.5587 57.8882 62.3139 60.1011 60.1009C62.3141 57.8879 63.559 54.8875 63.5626 51.7579V41.4668H56.9036V51.7579C56.9036 53.1225 56.3615 54.4313 55.3966 55.3963C54.4316 56.3613 53.1228 56.9034 51.7581 56.9034H41.467V63.5623ZM22.0955 63.5623H11.8045C8.67483 63.5587 5.67441 62.3139 3.46143 60.1009C1.24844 57.8879 0.00360488 54.8875 0 51.7579V41.4668H6.65893V51.7579C6.65893 53.1225 7.20105 54.4313 8.16602 55.3963C9.131 56.3613 10.4398 56.9034 11.8045 56.9034H22.0955V63.5623ZM0 22.0955H6.65893V11.8045C6.65893 10.4398 7.20105 9.131 8.16602 8.16602C9.131 7.20105 10.4398 6.65893 11.8045 6.65893H22.0955V0H11.8045C8.67483 0.00360488 5.67441 1.24844 3.46143 3.46143C1.24844 5.67441 0.00360488 8.67483 0 11.8045V22.0955Z" fill="url(#paint0_linear)"/>
<defs>
<linearGradient id="paint0_linear" x1="14.553" y1="11.4412" x2="61.3607" y2="65.4208" gradientUnits="userSpaceOnUse">
<stop stop-color="#3C6697"/>
<stop offset="1" stop-color="#1E9F13"/>
</linearGradient>
</defs>
</svg>
