<svg width="26" height="25" viewBox="0 0 26 25" fill="none" xmlns="http://www.w3.org/2000/svg">
<path d="M10.2564 0H15.3846C18.1048 0 20.7135 1.08058 22.637 3.00403C24.5604 4.92748 25.641 7.53624 25.641 10.2564C25.641 12.9766 24.5604 15.5853 22.637 17.5088C20.7135 19.4322 18.1048 20.5128 15.3846 20.5128V25C8.97436 22.4359 0 18.5897 0 10.2564C0 7.53624 1.08058 4.92748 3.00403 3.00403C4.92748 1.08058 7.53624 0 10.2564 0ZM12.8205 17.9487H15.3846C16.3948 17.9487 17.3951 17.7498 18.3283 17.3632C19.2616 16.9766 20.1096 16.41 20.8239 15.6957C21.5382 14.9814 22.1048 14.1334 22.4914 13.2001C22.878 12.2669 23.0769 11.2666 23.0769 10.2564C23.0769 9.24624 22.878 8.24597 22.4914 7.31269C22.1048 6.37942 21.5382 5.53142 20.8239 4.81713C20.1096 4.10283 19.2616 3.53622 18.3283 3.14964C17.3951 2.76307 16.3948 2.5641 15.3846 2.5641H10.2564C8.21628 2.5641 6.25972 3.37454 4.81713 4.81713C3.37454 6.25972 2.5641 8.21628 2.5641 10.2564C2.5641 14.8846 5.72051 17.9051 12.8205 21.1282V17.9487Z" fill="#A6A6A6"/>
</svg>
