<svg width="25" height="25" viewBox="0 0 25 25" fill="none" xmlns="http://www.w3.org/2000/svg">
<path d="M24.0222 23.6654C24.0222 24.0194 23.8816 24.3588 23.6313 24.6091C23.381 24.8594 23.0416 25 22.6876 25H1.33457C0.980617 25 0.641165 24.8594 0.390885 24.6091C0.140606 24.3588 3.21244e-07 24.0194 3.21244e-07 23.6654V9.63915C-0.000140775 9.43578 0.0461989 9.23507 0.13548 9.05235C0.224761 8.86962 0.354621 8.70972 0.515142 8.58485L11.1917 0.281185C11.4259 0.0989436 11.7143 0 12.0111 0C12.3079 0 12.5962 0.0989436 12.8305 0.281185L23.507 8.58485C23.6676 8.70972 23.7974 8.86962 23.8867 9.05235C23.976 9.23507 24.0223 9.43578 24.0222 9.63915V23.6654ZM5.33826 16.9926V19.6617H18.6839V16.9926H5.33826Z" fill="url(#paint0_linear)"/>
<defs>
<linearGradient id="paint0_linear" x1="5.5" y1="4.5" x2="24" y2="25" gradientUnits="userSpaceOnUse">
<stop stop-color="#3C6697"/>
<stop offset="1" stop-color="#1E9F13"/>
</linearGradient>
</defs>
</svg>
