<?xml version="1.0" standalone="no"?>
<!DOCTYPE svg PUBLIC "-//W3C//DTD SVG 20010904//EN"
 "http://www.w3.org/TR/2001/REC-SVG-20010904/DTD/svg10.dtd">
<svg version="1.0" xmlns="http://www.w3.org/2000/svg"
 width="855.000000pt" height="855.000000pt" viewBox="0 0 855.000000 855.000000"
 preserveAspectRatio="xMidYMid meet">
<metadata>
Created by potrace 1.14, written by Peter Selinger 2001-2017
</metadata>
<g transform="translate(0.000000,855.000000) scale(0.100000,-0.100000)"
fill="#000000" stroke="none">
<path d="M1695 7609 c-495 -62 -897 -459 -965 -954 -8 -57 -10 -823 -8 -2680
l4 -2600 21 -85 c63 -250 167 -443 333 -614 188 -194 409 -317 680 -378 l105
-23 2660 0 2660 0 50 23 c115 53 183 126 216 233 18 59 19 147 19 2801 l0
2741 -102 -99 c-271 -263 -649 -485 -1241 -730 -99 -41 -181 -74 -183 -74 -2
0 -4 123 -4 274 l0 273 -87 7 c-302 24 -562 140 -777 346 -111 106 -188 208
-253 336 -184 360 -189 783 -13 1135 l39 79 -1542 -1 c-848 -1 -1573 -5 -1612
-10z m2005 -2194 c0 -806 -3 -1465 -6 -1465 -3 0 -249 164 -546 364 l-540 365
-77 -48 c-681 -427 -1090 -681 -1095 -681 -3 0 -6 550 -6 1223 0 1344 -2 1298
62 1427 37 77 139 182 214 222 108 58 80 57 1077 57 l917 1 0 -1465z m3020
-3860 l0 -555 -2393 2 c-2303 3 -2394 4 -2447 22 -210 71 -349 215 -395 408
-71 303 138 615 448 667 28 5 1117 9 2420 10 l2367 1 0 -555z"/>
</g>
</svg>
