<svg width="19" height="20" viewBox="0 0 19 20" fill="none" xmlns="http://www.w3.org/2000/svg">
<path d="M18.6047 16.7442H0V14.8837H0.930233V8.40093C0.930233 3.76093 4.67907 0 9.30233 0C13.9256 0 17.6744 3.76093 17.6744 8.40093V14.8837H18.6047V16.7442ZM2.7907 14.8837H15.814V8.40093C15.814 4.78884 12.8986 1.86047 9.30233 1.86047C5.70605 1.86047 2.7907 4.78884 2.7907 8.40093V14.8837ZM6.97674 17.6744H11.6279C11.6279 18.2912 11.3829 18.8827 10.9468 19.3189C10.5106 19.755 9.91911 20 9.30233 20C8.68554 20 8.09402 19.755 7.65789 19.3189C7.22176 18.8827 6.97674 18.2912 6.97674 17.6744Z" fill="url(#paint0_linear)"/>
<defs>
<linearGradient id="paint0_linear" x1="4.25963" y1="3.6" x2="19.1011" y2="19.5212" gradientUnits="userSpaceOnUse">
<stop stop-color="#3C6697"/>
<stop offset="1" stop-color="#1E9F13"/>
</linearGradient>
</defs>
</svg>
