<svg width="23" height="25" viewBox="0 0 23 25" fill="none" xmlns="http://www.w3.org/2000/svg">
<path d="M21.25 25H4.375C3.21468 25 2.10188 24.5391 1.28141 23.7186C0.460936 22.8981 0 21.7853 0 20.625V3.75C0 2.75544 0.395088 1.80161 1.09835 1.09835C1.80161 0.395088 2.75544 0 3.75 0H21.25C21.5815 0 21.8995 0.131696 22.1339 0.366116C22.3683 0.600537 22.5 0.918479 22.5 1.25V23.75C22.5 24.0815 22.3683 24.3995 22.1339 24.6339C21.8995 24.8683 21.5815 25 21.25 25ZM20 22.5V18.75H4.375C3.87772 18.75 3.4008 18.9475 3.04917 19.2992C2.69754 19.6508 2.5 20.1277 2.5 20.625C2.5 21.1223 2.69754 21.5992 3.04917 21.9508C3.4008 22.3025 3.87772 22.5 4.375 22.5H20ZM8.75 2.5V12.5L13.125 10L17.5 12.5V2.5H8.75Z" fill="url(#paint0_linear)"/>
<defs>
<linearGradient id="paint0_linear" x1="5.15149" y1="4.5" x2="23.7362" y2="23.7889" gradientUnits="userSpaceOnUse">
<stop stop-color="#3C6697"/>
<stop offset="1" stop-color="#1E9F13"/>
</linearGradient>
</defs>
</svg>
